<svg width="25" height="25" viewBox="0 0 25 25" fill="none" xmlns="http://www.w3.org/2000/svg">
<g clip-path="url(#clip0_93_464)">
<path d="M9.982 0.000976562H4.3045V3.46309L9.982 2.51685V0.000976562Z" fill="white"/>
<path d="M22.4811 23.5343V7.14331H13.2324V23.5343H11.7676V5.67847V3.70435L2.51895 5.24575V23.5343H0V24.9991H25V23.5343H22.4811ZM18.8644 9.24961H20.4203V10.7145H18.8644V9.24961ZM18.8644 12.8208H20.4203V14.2856H18.8644V12.8208ZM18.8644 16.3919H20.4203V17.8568H18.8644V16.3919ZM18.8644 19.9631H20.4203V21.428H18.8644V19.9631ZM15.2932 9.24961H16.8491V10.7145H15.2932V9.24961ZM15.2932 12.8208H16.8491V14.2856H15.2932V12.8208ZM15.2932 16.3919H16.8491V17.8568H15.2932V16.3919ZM15.2932 19.9631H16.8491V21.428H15.2932V19.9631ZM8.15088 5.67847H9.70679V7.14331H8.15088V5.67847ZM8.15088 9.24961H9.70679V10.7145H8.15088V9.24961ZM8.15088 12.8208H9.70679V14.2856H8.15088V12.8208ZM8.15088 16.3919H9.70679V17.8568H8.15088V16.3919ZM4.57974 9.24961H6.13564V10.7145H4.57974V9.24961ZM4.57974 12.8208H6.13564V14.2856H4.57974V12.8208ZM4.57974 16.3919H6.13564V17.8568H4.57974V16.3919ZM4.62524 19.9631H9.66128V23.5343H8.19644V21.428H6.09009V23.5343H4.62524V19.9631Z" fill="white"/>
</g>
<defs>
<clipPath id="clip0_93_464">
<rect width="25" height="25" fill="white"/>
</clipPath>
</defs>
</svg>
