<svg width="10" height="10" viewBox="0 0 10 10" fill="none" xmlns="http://www.w3.org/2000/svg">
    <path d="M8.929.714H7.5V.357a.357.357 0 0 0-.714 0v.357H3.214V.357a.357.357 0 0 0-.714 0v.357H1.071A1.071 1.071 0 0 0 0 1.786v7.143A1.071 1.071 0 0 0 1.071 10H8.93A1.071 1.071 0 0 0 10 8.929V1.786A1.071 1.071 0 0 0 8.929.714zM1.07 1.43H2.5v.357a.357.357 0 0 0 .714 0v-.357h3.572v.357a.357.357 0 1 0 .714 0v-.357h1.429a.357.357 0 0 1 .357.357V3.57H.714V1.786a.357.357 0 0 1 .357-.357zM8.93 9.286H1.07a.357.357 0 0 1-.357-.357V4.286h8.572v4.643a.357.357 0 0 1-.357.357z" fill="#000"/>
    <path d="M7.5 5.714h-5a.357.357 0 1 0 0 .714h5a.357.357 0 1 0 0-.714zM5 7.143H2.5a.357.357 0 0 0 0 .714H5a.357.357 0 1 0 0-.714z" fill="#000"/>
</svg>
