<svg width="22" height="22" viewBox="0 0 22 22" fill="none" xmlns="http://www.w3.org/2000/svg">
<g clip-path="url(#clip0_93_470)">
<path d="M9.06624 6.66016C4.09076 6.66016 4.52502e-05 10.0816 4.52502e-05 14.2874C4.52502e-05 15.9685 0.652139 17.6771 1.848 19.0013L0.159287 20.9311C-0.00687272 21.1212 -0.0471774 21.3912 0.0579671 21.6216C0.162467 21.8519 0.391577 21.9999 0.644577 21.9999H9.71077C13.3844 21.9999 18.1324 18.8365 18.1324 14.2874C18.1324 10.0816 14.0417 6.66016 9.06624 6.66016ZM5.15617 15.4687C4.44555 15.4687 3.86715 14.8903 3.86715 14.1797C3.86715 13.4691 4.44559 12.8907 5.15617 12.8907C5.86674 12.8907 6.44519 13.4692 6.44519 14.1797C6.44523 14.8903 5.86678 15.4687 5.15617 15.4687ZM9.06624 15.4687C8.35562 15.4687 7.77722 14.8903 7.77722 14.1797C7.77722 13.4691 8.35566 12.8907 9.06624 12.8907C9.77681 12.8907 10.3553 13.4692 10.3553 14.1797C10.3553 14.8903 9.77685 15.4687 9.06624 15.4687ZM12.9763 15.4687C12.2657 15.4687 11.6873 14.8903 11.6873 14.1797C11.6873 13.4691 12.2657 12.8907 12.9763 12.8907C13.6869 12.8907 14.2653 13.4692 14.2653 14.1797C14.2653 14.8903 13.6869 15.4687 12.9763 15.4687Z" fill="white"/>
<path d="M21.844 13.1153L20.3266 11.3447C21.4098 10.1224 21.9995 8.63194 21.9995 7.08992C21.9995 3.18066 18.2407 0.000244141 13.6208 0.000244141C9.44317 0.000244141 5.89391 2.60368 5.26721 5.99224C6.43287 5.59615 7.74011 5.37099 9.06625 5.37099C14.7103 5.37099 19.3474 9.31316 19.4152 14.1796H21.355C21.9056 14.1796 22.2012 13.5313 21.844 13.1153Z" fill="white"/>
</g>
<defs>
<clipPath id="clip0_93_470">
<rect width="22" height="22" fill="white"/>
</clipPath>
</defs>
</svg>
