<svg width="9" height="9" viewBox="0 0 9 9" fill="none" xmlns="http://www.w3.org/2000/svg">
<g clip-path="url(#clip0_1290_543)">
<path d="M4.5 0C2.0187 0 0 2.01873 0 4.50003C0 6.98133 2.0187 9 4.5 9C6.9813 9 9 6.98133 9 4.50003C9 2.01873 6.9813 0 4.5 0ZM4.5 8.18182C2.46982 8.18182 0.818182 6.53018 0.818182 4.50003C0.818182 2.46987 2.46982 0.818182 4.5 0.818182C6.53018 0.818182 8.18182 2.46987 8.18182 4.50003C8.18182 6.53018 6.53015 8.18182 4.5 8.18182Z" fill="black" fill-opacity="0.6"/>
<path d="M4.50042 1.90918C4.19971 1.90918 3.95508 2.15398 3.95508 2.45488C3.95508 2.75551 4.19971 3.00009 4.50042 3.00009C4.80113 3.00009 5.04577 2.75551 5.04577 2.45488C5.04577 2.15398 4.80113 1.90918 4.50042 1.90918Z" fill="black" fill-opacity="0.6"/>
<path d="M4.50089 3.81812C4.27496 3.81812 4.0918 4.00128 4.0918 4.22721V6.68175C4.0918 6.90768 4.27496 7.09084 4.50089 7.09084C4.72682 7.09084 4.90998 6.90768 4.90998 6.68175V4.22721C4.90998 4.00128 4.72682 3.81812 4.50089 3.81812Z" fill="black" fill-opacity="0.6"/>
</g>
<defs>
<clipPath id="clip0_1290_543">
<rect width="9" height="9" fill="white"/>
</clipPath>
</defs>
</svg>
