<svg width="51" height="51" viewBox="0 0 51 51" fill="none" xmlns="http://www.w3.org/2000/svg">
<g clip-path="url(#clip0_208_315)">
<path d="M25.5001 51C39.5832 51 51.0002 39.5832 51.0002 25.4999C51.0002 11.4166 39.5832 0 25.5001 0C11.417 0 0 11.4168 0 25.5001C0 39.5834 11.4168 51 25.5001 51ZM25.5001 4.07996C37.3107 4.07996 46.92 13.6893 46.92 25.4999C46.92 37.3105 37.3107 46.9199 25.5001 46.9199C13.6895 46.9199 4.08014 37.3105 4.08014 25.4999C4.08014 13.6893 13.6884 4.07996 25.5001 4.07996Z" fill="white"/>
<path d="M20.7611 37.528C22.1697 37.528 23.3112 36.3866 23.3112 34.9779V15.5979C23.3112 14.1894 22.1699 13.0479 20.7611 13.0479C19.3526 13.0479 18.2111 14.1892 18.2111 15.5979V34.9779C18.2111 36.3866 19.3524 37.528 20.7611 37.528Z" fill="white"/>
<path d="M30.961 37.528C32.3696 37.528 33.5111 36.3866 33.5111 34.9779V15.5979C33.5111 14.1894 32.3698 13.0479 30.961 13.0479C29.5523 13.0479 28.4111 14.1894 28.4111 15.5979V34.9779C28.4111 36.3866 29.5525 37.528 30.961 37.528Z" fill="white"/>
</g>
<defs>
<clipPath id="clip0_208_315">
<rect width="51" height="51" fill="white"/>
</clipPath>
</defs>
</svg>
