<svg width="55" height="55" viewBox="0 0 55 55" fill="none" xmlns="http://www.w3.org/2000/svg">
<g clip-path="url(#clip0_208_281)">
<path d="M36.4153 26.4433L25.1914 18.2844C24.7795 17.9859 24.2327 17.9409 23.7813 18.1729C23.3262 18.4032 23.042 18.8708 23.042 19.3763V35.6886C23.042 36.1995 23.3262 36.6653 23.7813 36.8956C23.9737 36.9927 24.1842 37.0413 24.3964 37.0413C24.6734 37.0413 24.954 36.9531 25.1914 36.7786L36.4153 28.627C36.7696 28.3661 36.9765 27.9632 36.9765 27.5351C36.9783 27.0999 36.766 26.6987 36.4153 26.4433Z" fill="white"/>
<path d="M27.5008 0.477295C12.5717 0.477295 0.473633 12.5753 0.473633 27.5045C0.473633 42.4283 12.5717 54.5227 27.5008 54.5227C42.4264 54.5227 54.5263 42.4265 54.5263 27.5045C54.5281 12.5753 42.4264 0.477295 27.5008 0.477295ZM27.5008 50.0134C15.0683 50.0134 4.98836 39.9389 4.98836 27.5045C4.98836 15.0755 15.0683 4.98843 27.5008 4.98843C39.9316 4.98843 50.0097 15.0737 50.0097 27.5045C50.0115 39.9389 39.9316 50.0134 27.5008 50.0134Z" fill="white"/>
</g>
<defs>
<clipPath id="clip0_208_281">
<rect width="54.0526" height="54.0526" fill="white" transform="translate(0.473633 0.473633)"/>
</clipPath>
</defs>
</svg>
