<svg width="22" height="22" viewBox="0 0 22 22" fill="none" xmlns="http://www.w3.org/2000/svg">
<g clip-path="url(#clip0_93_454)">
<path d="M11.9815 6.03965C11.4359 6.58415 10.5515 6.58415 10.0058 6.03965C9.4603 5.49516 9.4603 4.61229 10.0058 4.06779C10.5515 3.5233 11.4359 3.5233 11.9815 4.06779C12.527 4.61229 12.527 5.49516 11.9815 6.03965Z" fill="white"/>
<path d="M13.8899 8.15234C13.7197 8.15234 13.5495 8.08738 13.42 7.9573C13.1608 7.69781 13.1613 7.27736 13.4208 7.01837C13.9467 6.49352 14.2362 5.79578 14.2362 5.05373C14.2362 4.31168 13.9467 3.61395 13.4208 3.08909C13.1613 2.82994 13.1608 2.40965 13.42 2.14999C13.679 1.8905 14.0994 1.89 14.3589 2.14915C15.1362 2.92494 15.5642 3.95635 15.5642 5.05373C15.5642 6.15094 15.1362 7.18253 14.3589 7.95831C14.2293 8.08772 14.0596 8.15234 13.8899 8.15234Z" fill="white"/>
<path d="M15.3918 10.1071C15.2216 10.1071 15.0514 10.0421 14.9219 9.91221C14.6627 9.65255 14.6632 9.23226 14.9227 8.97311C15.9717 7.92608 16.5496 6.53413 16.5496 5.05356C16.5496 3.57299 15.9717 2.18104 14.9227 1.13401C14.6632 0.874857 14.6627 0.45457 14.9219 0.194912C15.181 -0.0645785 15.6013 -0.0650821 15.8608 0.194073C17.1613 1.49203 17.8776 3.21782 17.8775 5.05356C17.8775 6.88929 17.1613 8.61526 15.8608 9.91321C15.7312 10.0425 15.5615 10.1071 15.3918 10.1071Z" fill="white"/>
<path d="M8.09405 8.15216C7.92436 8.15216 7.75467 8.08754 7.62492 7.95813C6.84762 7.18234 6.41962 6.15076 6.41962 5.05355C6.41962 3.95617 6.84762 2.92475 7.62492 2.14897C7.88441 1.88981 8.30487 1.89015 8.56385 2.14981C8.82301 2.4093 8.8225 2.82975 8.56301 3.08891C8.03715 3.61376 7.74762 4.3115 7.74762 5.05355C7.74762 5.7956 8.03715 6.49333 8.56301 7.01819C8.8225 7.27718 8.82301 7.69763 8.56385 7.95712C8.43428 8.08704 8.26408 8.15216 8.09405 8.15216Z" fill="white"/>
<path d="M6.59219 10.1072C6.42233 10.1072 6.25264 10.0425 6.12306 9.91313C4.82258 8.61517 4.10638 6.88938 4.10638 5.05364C4.10638 3.21774 4.82258 1.49194 6.12306 0.193989C6.38255 -0.0649982 6.803 -0.0646624 7.06199 0.194996C7.32114 0.454486 7.32064 0.874773 7.06115 1.13393C6.01211 2.18095 5.43422 3.5729 5.43422 5.05347C5.43422 6.53405 6.01211 7.92616 7.06115 8.97319C7.32064 9.23234 7.32114 9.65263 7.06199 9.91229C6.93241 10.0422 6.76222 10.1072 6.59219 10.1072Z" fill="white"/>
<path d="M19.7433 11.2551H2.24075C1.38289 11.2551 0.6875 11.9505 0.6875 12.8082V20.4467C0.6875 21.3046 1.38289 22 2.24075 22H19.7431C20.601 22 21.2963 21.3046 21.2963 20.4467V12.8082C21.2963 11.9505 20.601 11.2551 19.7433 11.2551ZM5.79523 20.0071H3.34887C2.98229 20.0071 2.68504 19.7099 2.68504 19.3431V13.912C2.68504 13.5454 2.98229 13.248 3.34887 13.248C3.71562 13.248 4.01287 13.5452 4.01287 13.912V18.6791H5.79523C6.16197 18.6791 6.45923 18.9764 6.45923 19.3431C6.45923 19.7099 6.16197 20.0071 5.79523 20.0071ZM8.51636 19.3431C8.51636 19.7099 8.2191 20.0071 7.85236 20.0071C7.48561 20.0071 7.18835 19.7099 7.18835 19.3431V13.912C7.18835 13.5454 7.48561 13.248 7.85236 13.248C8.2191 13.248 8.51636 13.5452 8.51636 13.912V19.3431ZM14.103 14.104L12.4633 19.535C12.4631 19.5355 12.4629 19.536 12.4628 19.5365C12.2847 20.1443 11.3768 20.1293 11.1925 19.5365C11.1923 19.536 11.1922 19.5355 11.192 19.535L9.5523 14.104C9.44639 13.7528 9.64495 13.3824 9.99609 13.2763C10.3469 13.1704 10.7177 13.369 10.8236 13.7201L11.8276 17.0457L12.8317 13.7201C12.9378 13.369 13.3082 13.1703 13.6593 13.2763C14.0103 13.3824 14.209 13.7528 14.103 14.104ZM18.1878 15.6216C18.5546 15.6216 18.8518 15.9189 18.8518 16.2856C18.8518 16.6522 18.5546 16.9496 18.1878 16.9496H16.3036V18.6791H18.5455C18.9123 18.6791 19.2095 18.9764 19.2095 19.3431C19.2095 19.7099 18.9123 20.0071 18.5455 20.0071H15.6396C15.2728 20.0071 14.9756 19.7099 14.9756 19.3431V13.912C14.9756 13.5454 15.2728 13.248 15.6396 13.248H18.635C19.0015 13.248 19.299 13.5452 19.299 13.912C19.299 14.2787 19.0015 14.576 18.635 14.576H16.3034V15.6216H18.1878Z" fill="white"/>
</g>
<defs>
<clipPath id="clip0_93_454">
<rect width="22" height="22" fill="white"/>
</clipPath>
</defs>
</svg>
