<svg width="88" height="88" viewBox="0 0 88 88" fill="none" xmlns="http://www.w3.org/2000/svg">
<g clip-path="url(#clip0_116_26)">
<path d="M55.3927 69.0327C54.1137 69.0327 53.0039 68.082 52.838 66.7802C52.6588 65.3676 53.6578 64.0772 55.0697 63.8973C63.2163 62.8593 70.5116 60.6518 75.6114 57.6802C80.2755 54.9631 82.8436 51.7687 82.8436 48.6857C82.8436 45.2878 79.8385 42.5076 77.3167 40.7727C76.1438 39.9657 75.8471 38.3611 76.6541 37.1875C77.4611 36.0146 79.0664 35.7179 80.2393 36.5249C85.3163 40.0174 87.9998 44.2223 87.9998 48.6864C87.9998 53.7526 84.614 58.4033 78.2077 62.1356C72.4411 65.4952 64.6658 67.8732 55.7216 69.0126C55.6109 69.026 55.5007 69.0327 55.3927 69.0327Z" fill="white"/>
<path d="M43.3715 65.3394L36.4965 58.4644C35.4894 57.4574 33.8573 57.4574 32.8502 58.4644C31.8438 59.4708 31.8438 61.1036 32.8502 62.1101L34.859 64.1188C27.1569 63.3232 20.1597 61.53 14.7416 58.9243C8.65013 55.9951 5.15624 52.2628 5.15624 48.6857C5.15624 45.6517 7.65782 42.4982 12.1997 39.806C13.425 39.0802 13.8292 37.4984 13.1034 36.2738C12.377 35.0485 10.7952 34.6443 9.5706 35.3701C1.66034 40.0591 0 45.1992 0 48.6857C0 54.4059 4.44189 59.6924 12.5072 63.5717C18.7672 66.5815 26.8648 68.5976 35.6868 69.3778L32.8502 72.2144C31.8438 73.2208 31.8438 74.8536 32.8502 75.8607C33.3538 76.3636 34.0137 76.6153 34.6737 76.6153C35.333 76.6153 35.993 76.3636 36.4965 75.8607L43.3715 68.9857C44.3779 67.9786 44.3779 66.3458 43.3715 65.3394Z" fill="white"/>
<path d="M27.0011 43.5227V42.9024C27.0011 40.7143 25.6617 40.29 23.8657 40.29C22.7553 40.29 22.3961 39.3105 22.3961 38.3309C22.3961 37.3507 22.7553 36.3711 23.8657 36.3711C25.1065 36.3711 26.413 36.208 26.413 33.5627C26.413 31.6688 25.3354 31.2115 23.996 31.2115C22.3961 31.2115 21.5797 31.6036 21.5797 32.8772C21.5797 33.987 21.0896 34.7383 19.1956 34.7383C16.8444 34.7383 16.551 34.2482 16.551 32.6805C16.551 30.134 18.3792 26.8354 23.996 26.8354C28.1438 26.8354 31.2785 28.3373 31.2785 32.7463C31.2785 35.1297 30.397 37.3507 28.7642 38.102C30.691 38.8204 32.0949 40.2571 32.0949 42.9024V43.5227C32.0949 48.8784 28.405 50.9033 23.8328 50.9033C18.216 50.9033 16.0609 47.4745 16.0609 44.7312C16.0609 43.2616 16.6812 42.8695 18.4772 42.8695C20.5672 42.8695 21.0896 43.3267 21.0896 44.5681C21.0896 46.1029 22.527 46.4621 23.996 46.4621C26.2169 46.4621 27.0011 45.6457 27.0011 43.5227Z" fill="white"/>
<path d="M51.9176 42.9024V43.1964C51.9176 48.8133 48.423 50.9033 43.9167 50.9033C39.4103 50.9033 35.8829 48.8133 35.8829 43.1964V34.5423C35.8829 28.9255 39.5077 26.8354 44.2107 26.8354C49.7295 26.8354 51.9176 30.2642 51.9176 32.9746C51.9176 34.5423 51.1663 35.0317 49.5335 35.0317C48.1296 35.0317 46.8882 34.6725 46.8882 33.1706C46.8882 31.9299 45.5824 31.2767 44.0476 31.2767C42.1207 31.2767 40.9773 32.2891 40.9773 34.5423V37.4809C42.0227 36.3382 43.4923 36.0442 45.06 36.0442C48.7822 36.0442 51.9176 37.677 51.9176 42.9024ZM40.9773 43.5556C40.9773 45.8088 42.0878 46.7884 43.9167 46.7884C45.7455 46.7884 46.8231 45.8088 46.8231 43.5556V43.2616C46.8231 40.8775 45.7455 39.963 43.8838 39.963C42.1207 39.963 40.9773 40.8124 40.9773 42.9675V43.5556Z" fill="white"/>
<path d="M55.8687 43.1964V34.5423C55.8687 28.9255 59.3626 26.8354 63.8696 26.8354C68.3759 26.8354 71.9027 28.9255 71.9027 34.5423V43.1964C71.9027 48.8133 68.3759 50.9033 63.8696 50.9033C59.3626 50.9033 55.8687 48.8133 55.8687 43.1964ZM66.8082 34.5423C66.8082 32.2891 65.6984 31.2767 63.8696 31.2767C62.0407 31.2767 60.9631 32.2891 60.9631 34.5423V43.1964C60.9631 45.4496 62.0407 46.4621 63.8696 46.4621C65.6984 46.4621 66.8082 45.4496 66.8082 43.1964V34.5423Z" fill="white"/>
<path d="M78.0915 26.8125C73.8262 26.8125 70.3572 23.3428 70.3572 19.0781C70.3572 14.8135 73.8262 11.3438 78.0915 11.3438C82.3562 11.3438 85.8259 14.8135 85.8259 19.0781C85.8259 23.3428 82.3562 26.8125 78.0915 26.8125ZM78.0915 16.5C76.6695 16.5 75.5134 17.6568 75.5134 19.0781C75.5134 20.5001 76.6695 21.6562 78.0915 21.6562C79.5128 21.6562 80.6696 20.5001 80.6696 19.0781C80.6696 17.6568 79.5128 16.5 78.0915 16.5Z" fill="white"/>
</g>
<defs>
<clipPath id="clip0_116_26">
<rect width="88" height="88" fill="white"/>
</clipPath>
</defs>
</svg>
